:SAMPLES-PER-SECOND 30
:FULLY-SPECIFIED
:DEGREES
216
root  -48.1957 39.3394 -3.27748 28.6539 86.3399 30.8466
RightUpLeg  16.0974 -11.2738 -5.41912
RightLeg  15.3709 2.72075 3.36643
RightFoot  -21.1632 -0.225257 -0.947569
RightToes  0.00048216 0.542163 -0.142577
Spine  8.77883 2.15904 9.94665
Spine1  12.8445 5.67425 -8.49571
HEad  0.982091 -3.34182 -0.74174
LeftShoulder1  7.40385 -11.3589 -43.3249
LeftArm  -7.83253 27.5707 -28.4784
LeftForeArm  35.5734 -16.2356 -3.96375
LeftHand  -0.25398 0.0180481 5.50724
RightShoulder  4.78279 8.0505 35.4245
RightArm  6.00336 3.49965 40.118
RightForeArm  9.05596 35.1709 7.38949
RightHand  -0.700918 0.422602 -14.0491
LeftUpLeg  -21.7244 2.97425 2.6624
LeftLeg  -2.64595 18.917 -6.45074
LeftFoot  -1.5202 0.505626 -5.75002
LeftToes  1.06247e-005 4.65855e-005 -8.185e-006
217
root  -46.4212 38.9847 -3.54013 22.879 85.8523 25.3307
RightUpLeg  18.6335 -12.2258 -7.18262
RightLeg  16.9284 5.33921 3.24292
RightFoot  -21.4261 -0.0703999 0.789222
RightToes  0.00048216 0.542163 -0.142577
Spine  8.31998 2.28851 9.19324
Spine1  12.8547 5.90223 -8.77009
HEad  1.31037 -2.60131 0.233896
LeftShoulder1  7.19535 -11.0968 -42.8318
LeftArm  -9.44243 29.3578 -28.486
LeftForeArm  36.4779 -14.4478 -4.04285
LeftHand  -0.25398 0.0180481 5.50724
RightShoulder  5.08355 8.70088 35.6788
RightArm  5.41339 2.32542 40.2516
RightForeArm  8.97209 32.5683 6.69145
RightHand  -0.754921 0.921815 -13.9804
LeftUpLeg  -22.2252 3.61684 1.73574
LeftLeg  -0.182593 20.3342 -5.81944
LeftFoot  -0.917467 0.353571 -3.85912
LeftToes  1.06247e-005 4.65855e-005 -8.185e-006
218
root  -44.5174 38.6219 -3.79524 25.495 85.3974 28.243
RightUpLeg  20.7079 -12.6289 -9.50535
RightLeg  19.7064 7.83239 3.36315
RightFoot  -21.2623 0.279601 4.9312
RightToes  0.00048216 0.542163 -0.142577
Spine  7.38822 2.75564 7.19471
Spine1  13.2852 6.02874 -7.9748
HEad  1.6858 -2.41302 1.3862
LeftShoulder1  7.12663 -10.8918 -43.037
LeftArm  -10.183 30.3045 -27.6981
LeftForeArm  36.7118 -12.7403 -4.13119
LeftHand  -0.25398 0.0180481 5.50724
RightShoulder  5.30554 9.13167 36.0084
RightArm  3.71267 -0.177121 40.1747
RightForeArm  8.3819 30.4688 6.19281
RightHand  -0.856054 1.44418 -14.6555
LeftUpLeg  -23.7756 7.12751 -1.39893
LeftLeg  7.1897 15.244 -2.77436
LeftFoot  2.79982 0.124714 -1.21166
LeftToes  1.06247e-005 4.65855e-005 -8.185e-006
219
root  -42.595 38.3615 -4.01775 33.823 84.8658 37.0352
RightUpLeg  20.6205 -10.5754 -10.9969
RightLeg  25.5943 7.17413 3.40878
RightFoot  -17.1995 0.373645 10.0824
RightToes  0.00048216 0.542163 -0.142577
Spine  6.89332 3.34238 4.37333
Spine1  13.2761 6.0863 -6.86893
HEad  2.18284 -2.89491 2.86251
LeftShoulder1  7.11996 -10.7477 -43.453
LeftArm  -10.4259 30.471 -26.4419
LeftForeArm  36.3481 -11.2714 -4.1845
LeftHand  -0.25398 0.0180481 5.50724
RightShoulder  5.39268 9.12791 36.6938
RightArm  2.14736 -3.46055 40.1185
RightForeArm  5.87584 28.2955 5.80366
RightHand  -1.07124 2.20443 -16.4908
LeftUpLeg  -25.2286 13.9385 -6.7135
LeftLeg  13.9775 5.3699 0.348529
LeftFoot  7.28829 -0.316622 1.67821
LeftToes  1.06247e-005 4.65855e-005 -8.185e-006
220
root  -40.8357 38.3401 -4.22611 43.6789 84.2126 47.5676
RightUpLeg  16.432 -7.03463 -11.1572
RightLeg  36.4264 3.14003 2.15199
RightFoot  -6.10118 -0.52838 11.6669
RightToes  0.00048216 0.542163 -0.142577
Spine  7.71674 3.48311 1.67125
Spine1  12.3578 5.94571 -6.51453
HEad  2.60296 -3.36757 4.26432
LeftShoulder1  7.16656 -10.7638 -43.7014
LeftArm  -10.6624 29.8384 -25.2641
LeftForeArm  35.2937 -9.92669 -4.15546
LeftHand  -0.25398 0.0180481 5.50724
RightShoulder  5.44185 9.0366 37.3728
RightArm  2.22478 -6.52763 40.5629
RightForeArm  1.67409 25.2321 5.32583
RightHand  -1.3142 3.02153 -18.3199
LeftUpLeg  -24.946 15.1631 -9.13109
LeftLeg  18.5776 2.96037 1.63934
LeftFoot  8.14623 -0.755034 4.1511
LeftToes  1.06247e-005 4.65855e-005 -8.185e-006
221
root  -39.4012 38.4453 -4.45136 49.3247 83.247 54.0625
RightUpLeg  8.38321 -3.89282 -11.0295
RightLeg  50.8892 -0.240559 -0.687352
RightFoot  7.22382 -1.36373 8.68318
RightToes  0.00048216 0.542163 -0.142577
Spine  9.75927 3.13276 -0.514877
Spine1  11.3845 5.51436 -7.10838
HEad  2.49046 -2.96673 4.69191
LeftShoulder1  7.34358 -11.0158 -44.0202
LeftArm  -10.802 28.0615 -24.4499
LeftForeArm  34.0207 -8.68477 -4.13069
LeftHand  -0.25398 0.0180481 5.50724
RightShoulder  5.53496 9.20987 37.5109
RightArm  3.80597 -8.53204 41.4469
RightForeArm  -0.885447 21.8932 5.04505
RightHand  -1.24401 2.61269 -18.1388
LeftUpLeg  -23.0452 14.2596 -9.9202
LeftLeg  21.4993 4.47426 2.26725
LeftFoot  5.14939 -0.856072 5.68086
LeftToes  1.06247e-005 4.65855e-005 -8.185e-006
222
root  -38.2128 38.624 -4.70316 47.7503 82.4151 53.4749
RightUpLeg  -1.28641 -1.75007 -10.829
RightLeg  65.6775 -1.37926 -3.98846
RightFoot  13.4298 -1.09259 5.30322
RightToes  0.00048216 0.542163 -0.142577
Spine  12.1642 2.54873 -1.91154
Spine1  11.0944 4.77701 -7.68359
HEad  1.7793 -1.60897 3.71032
LeftShoulder1  7.60179 -11.3681 -44.5152
LeftArm  -10.8509 24.9747 -24.2515
LeftForeArm  33.7898 -7.88088 -4.18776
LeftHand  -0.25398 0.0180481 5.50724
RightShoulder  5.61427 9.49618 37.1728
RightArm  4.82691 -9.42527 42.0717
RightForeArm  2.30865 19.7162 5.3481
RightHand  -0.807145 0.690887 -15.3626
LeftUpLeg  -20.1846 14.7249 -10.3257
LeftLeg  22.4746 4.8949 2.5551
LeftFoot  1.71036 -0.686367 5.88344
LeftToes  1.06247e-005 4.65855e-005 -8.185e-006
223
root  -37.0535 39.008 -4.97746 42.0338 82.7258 48.7158
RightUpLeg  -11.121 -1.64904 -9.83694
RightLeg  78.2305 -0.929241 -6.77367
RightFoot  11.8018 -0.607095 3.35655
RightToes  0.00048216 0.542163 -0.142577
Spine  14.3007 1.67491 -2.05714
Spine1  10.9753 3.60515 -7.13369
HEad  0.976684 -0.156999 2.02838
LeftShoulder1  7.74281 -11.5719 -44.7395
LeftArm  -11.4058 21.0358 -24.9513
LeftForeArm  35.1448 -8.05696 -4.20559
LeftHand  -0.25398 0.0180481 5.50724
RightShoulder  5.60201 9.58606 36.7939
RightArm  5.81003 -10.1006 42.0596
RightForeArm  8.16234 19.5682 5.13638
RightHand  -0.490357 -0.74205 -12.2854
LeftUpLeg  -16.3831 15.7855 -9.41092
LeftLeg  21.377 4.16462 2.15722
LeftFoot  0.00303284 -0.505613 5.09326
LeftToes  1.06247e-005 4.65855e-005 -8.185e-006
224
root  -35.9355 39.5042 -5.23227 37.6795 84.1653 44.9572
RightUpLeg  -21.0328 -3.47954 -8.04715
RightLeg  87.1319 0.147987 -7.57166
RightFoot  7.43343 -0.512289 3.43208
RightToes  0.00048216 0.542163 -0.142577
Spine  16.3054 0.587209 -1.88642
Spine1  10.4576 1.97049 -5.50493
HEad  0.549146 0.916951 0.675696
LeftShoulder1  7.69804 -11.573 -44.465
LeftArm  -12.5843 17.0518 -26.3083
LeftForeArm  36.5802 -9.80184 -4.0535
LeftHand  -0.25398 0.0180481 5.50724
RightShoulder  5.51713 9.48226 36.4913
RightArm  6.26194 -11.4844 41.5289
RightForeArm  11.1735 20.9286 4.60879
RightHand  -0.508122 -0.539514 -12.0646
LeftUpLeg  -12.4642 16.4597 -7.72881
LeftLeg  19.1631 3.00243 1.36716
LeftFoot  -0.802666 -0.366082 4.01696
LeftToes  1.06247e-005 4.65855e-005 -8.185e-006
225
root  -34.8675 39.9127 -5.44687 34.6028 86.0356 42.1852
RightUpLeg  -31.1257 -6.02268 -5.68021
RightLeg  92.5634 0.872427 -7.01724
RightFoot  4.3164 -0.51274 3.92559
RightToes  0.00048216 0.542163 -0.142577
Spine  18.3949 -0.418086 -1.94665
Spine1  9.44458 0.225343 -3.59054
HEad  0.367478 1.70697 0.11273
LeftShoulder1  7.60339 -11.5312 -44.0199
LeftArm  -13.1181 13.6701 -27.5262
LeftForeArm  35.8534 -13.7696 -3.6821
LeftHand  -0.25398 0.0180481 5.50724
RightShoulder  5.4335 9.38393 36.1752
RightArm  5.71056 -13.5545 40.7203
RightForeArm  9.19555 22.7089 4.49844
RightHand  -0.70883 0.303239 -14.4525
LeftUpLeg  -8.92869 15.3273 -5.61218
LeftLeg  17.2522 3.04313 0.262186
LeftFoot  -2.18411 -0.228588 3.01432
LeftToes  1.06247e-005 4.65855e-005 -8.185e-006
